<svg width="213" height="223" viewBox="0 0 213 223" fill="none" xmlns="http://www.w3.org/2000/svg">
<path fill-rule="evenodd" clip-rule="evenodd" d="M212.88 49.7698C212.959 50.0631 212.999 50.3655 213 50.6693V97.8917C213 98.4978 212.841 99.0931 212.538 99.6176C212.235 100.142 211.8 100.577 211.276 100.879L171.772 123.698V168.928C171.772 170.158 171.12 171.295 170.056 171.914L87.5954 219.541C87.4066 219.649 87.2007 219.718 86.9948 219.791C86.9176 219.817 86.8447 219.864 86.7632 219.886C86.1867 220.038 85.5808 220.038 85.0044 219.886C84.91 219.86 84.8242 219.808 84.7341 219.774C84.5454 219.705 84.3481 219.645 84.1679 219.541L1.72445 171.914C1.20071 171.613 0.76554 171.178 0.462791 170.653C0.160041 170.129 0.000414981 169.534 0 168.928L0 27.2604C0 26.9505 0.0428969 26.6492 0.120111 26.3565C0.145849 26.2575 0.205905 26.1672 0.240222 26.0682C0.304568 25.8874 0.364623 25.7023 0.458996 25.5345C0.523342 25.4226 0.617715 25.3322 0.694929 25.2289C0.793592 25.0912 0.883675 24.9492 0.999497 24.8287C1.09816 24.7297 1.22685 24.6565 1.33838 24.5704C1.46278 24.4671 1.57431 24.3552 1.71587 24.2734H1.72016L42.944 0.459963C43.466 0.158606 44.0577 0 44.6599 0C45.2621 0 45.8538 0.158606 46.3758 0.459963L87.5997 24.2734H87.6082C87.7455 24.3595 87.8613 24.4671 87.9857 24.5661C88.0973 24.6522 88.2217 24.7297 88.3203 24.8243C88.4404 24.9492 88.5262 25.0912 88.6292 25.2289C88.7021 25.3322 88.8008 25.4226 88.8608 25.5345C88.9595 25.7066 89.0152 25.8874 89.0839 26.0682C89.1182 26.1672 89.1783 26.2575 89.204 26.3608C89.283 26.6541 89.3234 26.9565 89.3241 27.2604V115.744L123.676 95.899V50.665C123.676 50.3637 123.719 50.0581 123.796 49.7698C123.826 49.6665 123.882 49.5761 123.916 49.4771C123.985 49.2963 124.045 49.1113 124.139 48.9434C124.204 48.8315 124.298 48.7411 124.371 48.6378C124.474 48.5001 124.56 48.3581 124.68 48.2376C124.778 48.1386 124.903 48.0654 125.014 47.9793C125.143 47.876 125.255 47.7641 125.392 47.6824H125.396L166.624 23.8689C167.146 23.5671 167.738 23.4083 168.34 23.4083C168.942 23.4083 169.534 23.5671 170.056 23.8689L211.28 47.6824C211.426 47.7684 211.537 47.876 211.666 47.975C211.773 48.0611 211.898 48.1386 211.996 48.2333C212.116 48.3581 212.202 48.5001 212.305 48.6378C212.382 48.7411 212.477 48.8315 212.537 48.9434C212.635 49.1113 212.691 49.2963 212.76 49.4771C212.798 49.5761 212.854 49.6665 212.88 49.7698V49.7698ZM206.128 95.899V56.6302L191.702 64.9625L171.772 76.4755V115.744L206.132 95.899H206.128ZM164.904 166.935V127.64L145.3 138.873L89.3198 170.929V210.594L164.904 166.935ZM6.87207 33.2213V166.935L82.4477 210.589V170.933L42.9655 148.514L42.9526 148.506L42.9355 148.497C42.8025 148.419 42.6909 148.308 42.5665 148.213C42.4593 148.127 42.3349 148.058 42.2405 147.963L42.2319 147.95C42.1204 147.843 42.0432 147.709 41.9488 147.589C41.863 147.473 41.7601 147.374 41.6914 147.253L41.6872 147.24C41.6099 147.111 41.5628 146.956 41.507 146.81C41.4512 146.681 41.3783 146.56 41.344 146.422V146.418C41.3011 146.255 41.2925 146.082 41.2753 145.915C41.2582 145.785 41.2239 145.656 41.2239 145.527V145.519V53.0665L21.2983 41.5493L6.87207 33.2256V33.2213ZM44.6642 7.42368L10.3167 27.2604L44.6556 47.097L78.9988 27.2561L44.6556 7.42368H44.6642ZM62.5264 131.221L82.452 119.712V33.2213L68.0258 41.5536L48.0959 53.0665V139.558L62.5264 131.221ZM168.34 30.8326L133.997 50.6693L168.34 70.506L202.679 50.665L168.34 30.8326V30.8326ZM164.904 76.4755L144.974 64.9625L130.548 56.6302V95.899L150.474 107.408L164.904 115.744V76.4755ZM85.8795 164.968L136.253 136.115L161.434 121.697L127.116 101.873L87.6039 124.696L51.592 145.497L85.8795 164.968V164.968Z" fill="#FF2D20" style="mix-blend-mode:lighten"/>
<path d="M192.079 98.0369L139.769 108.223C138.91 108.39 138.273 109.114 138.221 109.983L135.003 163.988C134.928 165.26 136.103 166.247 137.353 165.961L151.916 162.621C153.279 162.309 154.51 163.501 154.23 164.863L149.903 185.918C149.612 187.335 150.951 188.547 152.344 188.127L161.339 185.411C162.733 184.99 164.073 186.205 163.778 187.624L156.902 220.697C156.472 222.765 159.241 223.894 160.396 222.12L161.167 220.935L203.792 136.403C204.506 134.987 203.275 133.374 201.711 133.674L186.72 136.549C185.311 136.819 184.112 135.515 184.51 134.145L194.294 100.439C194.692 99.0671 193.49 97.7623 192.079 98.0369Z" fill="url(#paint0_linear)"/>
<defs>
<linearGradient id="paint0_linear" x1="154.31" y1="100.802" x2="170.03" y2="209.316" gradientUnits="userSpaceOnUse">
<stop stop-color="#FFEA83"/>
<stop offset="0.0833333" stop-color="#FFDD35"/>
<stop offset="1" stop-color="#FFA800"/>
</linearGradient>
</defs>
</svg>
