<svg width="175" height="175" viewBox="0 0 175 175" fill="none" xmlns="http://www.w3.org/2000/svg">
<circle cx="87.5" cy="87.5" r="87.5" fill="#C4C4C4"/>
<circle cx="87.5" cy="87.5" r="87.5" fill="url(#paint0_linear)"/>
<path fill-rule="evenodd" clip-rule="evenodd" d="M134.26 66.3993C134.295 66.5276 134.312 66.6599 134.312 66.7928V87.4526C134.313 87.7178 134.243 87.9783 134.11 88.2077C133.978 88.4372 133.787 88.6275 133.558 88.7594L116.275 98.7428V118.531C116.275 119.069 115.99 119.566 115.524 119.838L79.448 140.674C79.3654 140.721 79.2753 140.752 79.1852 140.784C79.1514 140.795 79.1195 140.816 79.0839 140.825C78.8317 140.892 78.5666 140.892 78.3144 140.825C78.2731 140.814 78.2356 140.791 78.1962 140.776C78.1136 140.746 78.0273 140.72 77.9485 140.674L41.8794 119.838C41.6503 119.706 41.4599 119.515 41.3275 119.286C41.195 119.056 41.1252 118.796 41.125 118.531V56.5514C41.125 56.4158 41.1438 56.284 41.1775 56.156C41.1888 56.1127 41.2151 56.0731 41.2301 56.0298C41.2582 55.9507 41.2845 55.8698 41.3258 55.7963C41.354 55.7474 41.3953 55.7078 41.429 55.6627C41.4722 55.6024 41.5116 55.5403 41.5623 55.4875C41.6054 55.4442 41.6617 55.4122 41.7105 55.3746C41.765 55.3294 41.8138 55.2804 41.8757 55.2446H41.8776L59.913 44.8262C60.1414 44.6944 60.4002 44.625 60.6637 44.625C60.9272 44.625 61.186 44.6944 61.4144 44.8262L79.4498 55.2446H79.4536C79.5137 55.2823 79.5643 55.3294 79.6188 55.3727C79.6675 55.4103 79.722 55.4442 79.7651 55.4857C79.8177 55.5403 79.8552 55.6024 79.9003 55.6627C79.9322 55.7078 79.9753 55.7474 80.0016 55.7963C80.0448 55.8717 80.0692 55.9507 80.0992 56.0298C80.1142 56.0731 80.1405 56.1127 80.1517 56.1579C80.1863 56.2862 80.204 56.4185 80.2043 56.5514V95.2631L95.2332 86.5808V66.7909C95.2332 66.6591 95.252 66.5254 95.2858 66.3993C95.2989 66.3541 95.3233 66.3145 95.3383 66.2712C95.3683 66.1921 95.3946 66.1112 95.4359 66.0377C95.464 65.9888 95.5053 65.9492 95.5372 65.9041C95.5823 65.8438 95.6198 65.7817 95.6724 65.7289C95.7155 65.6856 95.77 65.6536 95.8187 65.616C95.875 65.5708 95.9238 65.5218 95.9839 65.486H95.9858L114.023 55.0676C114.251 54.9356 114.51 54.8661 114.774 54.8661C115.037 54.8661 115.296 54.9356 115.524 55.0676L133.56 65.486C133.624 65.5237 133.673 65.5708 133.729 65.6141C133.776 65.6517 133.83 65.6856 133.873 65.7271C133.926 65.7817 133.963 65.8438 134.008 65.9041C134.042 65.9492 134.084 65.9888 134.11 66.0377C134.153 66.1112 134.177 66.1921 134.207 66.2712C134.224 66.3145 134.249 66.3541 134.26 66.3993V66.3993ZM131.306 86.5808V69.4007L124.994 73.0461L116.275 78.083V95.2631L131.308 86.5808H131.306ZM113.271 117.659V100.468L104.694 105.382L80.2024 119.406V136.76L113.271 117.659ZM44.1315 59.1593V117.659L77.1959 136.758V119.408L59.9224 109.6L59.9168 109.596L59.9093 109.592C59.8511 109.559 59.8023 109.51 59.7479 109.468C59.7009 109.43 59.6465 109.4 59.6052 109.359L59.6015 109.353C59.5527 109.306 59.5189 109.248 59.4776 109.195C59.4401 109.144 59.395 109.101 59.365 109.048L59.3631 109.043C59.3293 108.986 59.3087 108.918 59.2843 108.854C59.2599 108.798 59.228 108.745 59.213 108.685V108.683C59.1942 108.611 59.1905 108.536 59.183 108.463C59.1755 108.406 59.1604 108.35 59.1604 108.293V108.289V67.8416L50.443 62.8028L44.1315 59.1612V59.1593ZM60.6656 47.8729L45.6386 56.5514L60.6618 65.23L75.687 56.5495L60.6618 47.8729H60.6656ZM68.4803 102.034L77.1978 96.9992V59.1593L70.8863 62.8047L62.167 67.8416V105.682L68.4803 102.034ZM114.774 58.1143L99.7486 66.7928L114.774 75.4714L129.797 66.7909L114.774 58.1143V58.1143ZM113.271 78.083L104.551 73.0461L98.2397 69.4007V86.5808L106.957 91.6158L113.271 95.2631V78.083ZM78.6973 116.798L100.736 104.175L111.752 97.8672L96.7383 89.1943L79.4517 99.1797L63.6965 108.28L78.6973 116.798V116.798Z" fill="#ED8989" style="mix-blend-mode:lighten"/>
<path d="M125.16 87.5161L102.274 91.9724C101.898 92.0456 101.619 92.3624 101.597 92.7425L100.189 116.37C100.156 116.926 100.67 117.358 101.217 117.233L107.588 115.772C108.185 115.635 108.723 116.157 108.601 116.753L106.708 125.964C106.58 126.584 107.166 127.114 107.775 126.93L111.711 125.742C112.321 125.558 112.907 126.09 112.778 126.71L109.77 141.18C109.581 142.085 110.793 142.578 111.298 141.802L111.636 141.284L130.284 104.301C130.596 103.682 130.058 102.976 129.373 103.107L122.815 104.365C122.199 104.483 121.674 103.913 121.848 103.314L126.129 88.5671C126.303 87.9669 125.777 87.396 125.16 87.5161Z" fill="url(#paint1_linear)"/>
<rect x="3" y="3" width="169" height="169" rx="84.5" stroke="url(#paint2_linear)" stroke-width="6" style="mix-blend-mode:soft-light"/>
<defs>
<linearGradient id="paint0_linear" x1="-1.44917" y1="-5.81228" x2="116.618" y2="137.084" gradientUnits="userSpaceOnUse">
<stop stop-color="#41D1FF"/>
<stop offset="1" stop-color="#BD34FE"/>
</linearGradient>
<linearGradient id="paint1_linear" x1="108.636" y1="88.726" x2="115.513" y2="136.201" gradientUnits="userSpaceOnUse">
<stop stop-color="#FFEA83"/>
<stop offset="0.0833333" stop-color="#FFDD35"/>
<stop offset="1" stop-color="#FFA800"/>
</linearGradient>
<linearGradient id="paint2_linear" x1="48.9752" y1="3.92315" x2="61.2992" y2="158.044" gradientUnits="userSpaceOnUse">
<stop stop-color="#FFEA83"/>
<stop offset="0.0833333" stop-color="#FFDD35"/>
<stop offset="1" stop-color="#FFA800"/>
</linearGradient>
</defs>
</svg>
