<svg width="164" height="182" viewBox="0 0 164 182" fill="none" xmlns="http://www.w3.org/2000/svg">
<path fill-rule="evenodd" clip-rule="evenodd" d="M163.908 38.2322C163.968 38.4575 163.999 38.6898 164 38.9232V75.1986C164 75.6642 163.877 76.1216 163.644 76.5244C163.411 76.9273 163.076 77.2615 162.672 77.4931L132.256 95.0225V129.767C132.256 130.713 131.754 131.585 130.935 132.062L67.4443 168.648C67.299 168.73 67.1405 168.783 66.9819 168.84C66.9225 168.859 66.8663 168.896 66.8036 168.912C66.3597 169.029 65.8932 169.029 65.4494 168.912C65.3767 168.892 65.3107 168.853 65.2413 168.826C65.096 168.773 64.9441 168.727 64.8053 168.648L1.32775 132.062C0.924494 131.83 0.58943 131.495 0.356327 131.093C0.123224 130.69 0.000319516 130.233 0 129.767V20.9409C0 20.7029 0.0330286 20.4714 0.09248 20.2466C0.112297 20.1706 0.158537 20.1011 0.18496 20.0251C0.234503 19.8862 0.280743 19.7441 0.353406 19.6151C0.402948 19.5292 0.475611 19.4597 0.535063 19.3804C0.611028 19.2746 0.680388 19.1655 0.769565 19.0729C0.845531 18.9969 0.944617 18.9407 1.03049 18.8745C1.12627 18.7952 1.21215 18.7092 1.32114 18.6464H1.32445L33.0649 0.353335C33.4668 0.121839 33.9223 0 34.386 0C34.8497 0 35.3053 0.121839 35.7072 0.353335L67.4476 18.6464H67.4542C67.5599 18.7125 67.6491 18.7952 67.7449 18.8712C67.8308 18.9374 67.9265 18.9969 68.0025 19.0696C68.095 19.1655 68.161 19.2746 68.2403 19.3804C68.2965 19.4597 68.3724 19.5292 68.4187 19.6151C68.4946 19.7474 68.5376 19.8862 68.5904 20.0251C68.6168 20.1011 68.6631 20.1706 68.6829 20.2499C68.7437 20.4752 68.7748 20.7075 68.7754 20.9409V88.9126L95.2246 73.6678V38.9199C95.2246 38.6885 95.2577 38.4537 95.3171 38.2322C95.3402 38.1529 95.3832 38.0834 95.4096 38.0074C95.4624 37.8685 95.5087 37.7264 95.5813 37.5974C95.6309 37.5115 95.7036 37.442 95.7597 37.3627C95.839 37.2569 95.905 37.1478 95.9975 37.0552C96.0735 36.9792 96.1693 36.923 96.2551 36.8569C96.3542 36.7775 96.4401 36.6915 96.5458 36.6287H96.5491L128.293 18.3356C128.695 18.1038 129.15 17.9818 129.614 17.9818C130.078 17.9818 130.533 18.1038 130.935 18.3356L162.676 36.6287C162.788 36.6949 162.874 36.7775 162.973 36.8535C163.055 36.9197 163.151 36.9792 163.227 37.0519C163.32 37.1478 163.386 37.2569 163.465 37.3627C163.524 37.442 163.597 37.5115 163.643 37.5974C163.719 37.7264 163.762 37.8685 163.815 38.0074C163.845 38.0834 163.888 38.1529 163.908 38.2322ZM5.29117 25.52V128.236L63.4809 161.771V131.308L33.0814 114.086L33.0715 114.079L33.0583 114.073C32.9559 114.013 32.87 113.927 32.7742 113.854C32.6917 113.788 32.5959 113.735 32.5232 113.663L32.5166 113.653C32.4307 113.57 32.3713 113.468 32.2986 113.375C32.2326 113.286 32.1533 113.21 32.1005 113.117L32.0972 113.107C32.0377 113.008 32.0014 112.889 31.9584 112.777C31.9155 112.677 31.8593 112.585 31.8329 112.479V112.476C31.7999 112.35 31.7933 112.218 31.7801 112.089C31.7669 111.99 31.7404 111.891 31.7404 111.791V40.7648L5.29117 25.5233V25.52ZM34.3893 5.70273L7.94337 20.9409L34.3827 36.1791L60.8254 20.9376L34.3827 5.70273H34.3893ZM129.614 23.685L103.171 38.9232L129.614 54.1614L156.053 38.9199L129.614 23.685ZM126.968 58.7471L100.516 43.5023V73.6678L126.968 88.9126V58.7471ZM66.1232 126.725L124.296 93.4851L97.8735 78.2568L39.7234 111.768L66.1232 126.725Z" fill="url(#paint0_linear)"/>
<path d="M144.327 65.6173L96.092 75.0839C95.2992 75.2395 94.7122 75.9124 94.6644 76.72L91.6973 126.913C91.6275 128.095 92.7115 129.012 93.8635 128.746L107.293 125.642C108.549 125.352 109.684 126.46 109.426 127.726L105.436 147.295C105.168 148.612 106.402 149.738 107.687 149.347L115.981 146.823C117.267 146.432 118.503 147.562 118.23 148.88L111.89 179.618C111.493 181.541 114.047 182.589 115.111 180.941L115.823 179.84L155.127 101.275C155.785 99.9594 154.65 98.4594 153.208 98.7382L139.385 101.41C138.086 101.661 136.98 100.45 137.347 99.1766L146.369 67.8499C146.736 66.5748 145.627 65.3621 144.327 65.6173Z" fill="url(#paint1_linear)"/>
<defs>
<linearGradient id="paint0_linear" x1="-1.35808" y1="-5.613" x2="113.259" y2="129.003" gradientUnits="userSpaceOnUse">
<stop stop-color="#41D1FF"/>
<stop offset="1" stop-color="#BD34FE"/>
</linearGradient>
<linearGradient id="paint1_linear" x1="109.5" y1="68.1874" x2="124.221" y2="169.007" gradientUnits="userSpaceOnUse">
<stop stop-color="#FFEA83"/>
<stop offset="0.0833333" stop-color="#FFDD35"/>
<stop offset="1" stop-color="#FFA800"/>
</linearGradient>
</defs>
</svg>
