<svg width="64" height="66" viewBox="0 0 64 66" fill="none" xmlns="http://www.w3.org/2000/svg">
<path fill-rule="evenodd" clip-rule="evenodd" d="M63.9639 14.9C63.9876 14.9878 63.9998 15.0784 64 15.1693V29.3067C64 29.4882 63.9521 29.6664 63.8611 29.8234C63.7701 29.9804 63.6393 30.1107 63.4819 30.2009L51.6122 37.0326V50.5734C51.6122 50.9419 51.4163 51.2821 51.0966 51.4676L26.3197 65.7261C26.263 65.7583 26.2012 65.779 26.1393 65.8009C26.1161 65.8086 26.0942 65.8228 26.0697 65.8292C25.8965 65.8748 25.7144 65.8748 25.5412 65.8292C25.5129 65.8215 25.4871 65.806 25.46 65.7957C25.4033 65.7751 25.344 65.757 25.2899 65.7261L0.518146 51.4676C0.360778 51.3772 0.230021 51.247 0.139054 51.09C0.0480875 50.933 0.000124689 50.7548 0 50.5734V8.16118C0 8.06841 0.0128892 7.97822 0.0360897 7.8906C0.0438233 7.86096 0.0618681 7.8339 0.0721795 7.80427C0.0915133 7.75015 0.109558 7.69475 0.137914 7.64449C0.157248 7.61099 0.185604 7.58393 0.208805 7.55301C0.23845 7.51178 0.265517 7.46926 0.300318 7.43318C0.329963 7.40354 0.368631 7.38164 0.402143 7.35587C0.439522 7.32495 0.473033 7.29145 0.515568 7.26696H0.516857L12.9034 0.137703C13.0602 0.0474834 13.238 0 13.4189 0C13.5999 0 13.7777 0.0474834 13.9345 0.137703L26.321 7.26696H26.3236C26.3648 7.29273 26.3996 7.32495 26.437 7.35458C26.4705 7.38035 26.5079 7.40354 26.5376 7.43189C26.5737 7.46926 26.5994 7.51178 26.6304 7.55301C26.6523 7.58393 26.6819 7.61099 26.7 7.64449C26.7296 7.69603 26.7464 7.75015 26.767 7.80427C26.7773 7.8339 26.7953 7.86096 26.8031 7.89189C26.8268 7.97969 26.8389 8.07023 26.8392 8.16118V34.6514L37.1608 28.7101V15.168C37.1608 15.0778 37.1737 14.9864 37.1969 14.9C37.2059 14.8691 37.2227 14.842 37.233 14.8124C37.2536 14.7583 37.2717 14.7029 37.3 14.6526C37.3194 14.6191 37.3477 14.5921 37.3696 14.5612C37.4006 14.5199 37.4264 14.4774 37.4624 14.4413C37.4921 14.4117 37.5295 14.3898 37.563 14.364C37.6016 14.3331 37.6352 14.2996 37.6764 14.2751H37.6777L50.0655 7.14584C50.2223 7.0555 50.4001 7.00794 50.5811 7.00794C50.762 7.00794 50.9398 7.0555 51.0966 7.14584L63.4831 14.2751C63.527 14.3009 63.5605 14.3331 63.5991 14.3627C63.6314 14.3885 63.6687 14.4117 63.6984 14.44C63.7345 14.4774 63.7603 14.5199 63.7912 14.5612C63.8144 14.5921 63.8428 14.6191 63.8608 14.6526C63.8904 14.7029 63.9072 14.7583 63.9278 14.8124C63.9394 14.842 63.9562 14.8691 63.9639 14.9ZM2.06485 9.94575V49.9768L24.773 63.046V51.1738L12.9098 44.462L12.9059 44.4595L12.9008 44.4569C12.8608 44.4337 12.8273 44.4002 12.7899 44.3718C12.7577 44.3461 12.7203 44.3255 12.692 44.2971L12.6894 44.2932C12.6559 44.261 12.6327 44.2211 12.6043 44.185C12.5786 44.1502 12.5476 44.1206 12.527 44.0845L12.5257 44.0806C12.5025 44.042 12.4883 43.9956 12.4716 43.9518C12.4548 43.9131 12.4329 43.8771 12.4226 43.8358V43.8345C12.4097 43.7856 12.4071 43.734 12.402 43.6838C12.3968 43.6451 12.3865 43.6065 12.3865 43.5678V15.887L2.06485 9.94704V9.94575ZM13.4202 2.22249L3.09985 8.16118L13.4176 14.0999L23.7367 8.15989L13.4176 2.22249H13.4202ZM50.5811 9.23064L40.262 15.1693L50.5811 21.108L60.8989 15.168L50.5811 9.23064ZM49.5486 22.8952L39.2257 16.9539V28.7101L49.5486 34.6514V22.8952ZM25.8042 49.388L48.5059 36.4334L38.1945 30.4986L15.5018 43.5588L25.8042 49.388Z" fill="#FF2D20"/>
<path fill-rule="evenodd" clip-rule="evenodd" d="M63.9639 14.9C63.9876 14.9878 63.9998 15.0784 64 15.1693V29.3067C64 29.4882 63.9521 29.6664 63.8611 29.8234C63.7701 29.9804 63.6393 30.1107 63.4819 30.2009L51.6122 37.0326V50.5734C51.6122 50.9419 51.4163 51.2821 51.0966 51.4676L26.3197 65.7261C26.263 65.7583 26.2012 65.779 26.1393 65.8009C26.1161 65.8086 26.0942 65.8228 26.0697 65.8292C25.8965 65.8748 25.7144 65.8748 25.5412 65.8292C25.5129 65.8215 25.4871 65.806 25.46 65.7957C25.4033 65.7751 25.344 65.757 25.2899 65.7261L0.518146 51.4676C0.360778 51.3772 0.230021 51.247 0.139054 51.09C0.0480875 50.933 0.000124689 50.7548 0 50.5734V8.16118C0 8.06841 0.0128892 7.97822 0.0360897 7.8906C0.0438233 7.86096 0.0618681 7.8339 0.0721795 7.80427C0.0915133 7.75015 0.109558 7.69475 0.137914 7.64449C0.157248 7.61099 0.185604 7.58393 0.208805 7.55301C0.23845 7.51178 0.265517 7.46926 0.300318 7.43318C0.329963 7.40354 0.368631 7.38164 0.402143 7.35587C0.439522 7.32495 0.473033 7.29145 0.515568 7.26696H0.516857L12.9034 0.137703C13.0602 0.0474834 13.238 0 13.4189 0C13.5999 0 13.7777 0.0474834 13.9345 0.137703L26.321 7.26696H26.3236C26.3648 7.29273 26.3996 7.32495 26.437 7.35458C26.4705 7.38035 26.5079 7.40354 26.5376 7.43189C26.5737 7.46926 26.5994 7.51178 26.6304 7.55301C26.6523 7.58393 26.6819 7.61099 26.7 7.64449C26.7296 7.69603 26.7464 7.75015 26.767 7.80427C26.7773 7.8339 26.7953 7.86096 26.8031 7.89189C26.8268 7.97969 26.8389 8.07023 26.8392 8.16118V34.6514L37.1608 28.7101V15.168C37.1608 15.0778 37.1737 14.9864 37.1969 14.9C37.2059 14.8691 37.2227 14.842 37.233 14.8124C37.2536 14.7583 37.2717 14.7029 37.3 14.6526C37.3194 14.6191 37.3477 14.5921 37.3696 14.5612C37.4006 14.5199 37.4264 14.4774 37.4624 14.4413C37.4921 14.4117 37.5295 14.3898 37.563 14.364C37.6016 14.3331 37.6352 14.2996 37.6764 14.2751H37.6777L50.0655 7.14584C50.2223 7.0555 50.4001 7.00794 50.5811 7.00794C50.762 7.00794 50.9398 7.0555 51.0966 7.14584L63.4831 14.2751C63.527 14.3009 63.5605 14.3331 63.5991 14.3627C63.6314 14.3885 63.6687 14.4117 63.6984 14.44C63.7345 14.4774 63.7603 14.5199 63.7912 14.5612C63.8144 14.5921 63.8428 14.6191 63.8608 14.6526C63.8904 14.7029 63.9072 14.7583 63.9278 14.8124C63.9394 14.842 63.9562 14.8691 63.9639 14.9ZM2.06485 9.94575V49.9768L24.773 63.046V51.1738L12.9098 44.462L12.9059 44.4595L12.9008 44.4569C12.8608 44.4337 12.8273 44.4002 12.7899 44.3718C12.7577 44.3461 12.7203 44.3255 12.692 44.2971L12.6894 44.2932C12.6559 44.261 12.6327 44.2211 12.6043 44.185C12.5786 44.1502 12.5476 44.1206 12.527 44.0845L12.5257 44.0806C12.5025 44.042 12.4883 43.9956 12.4716 43.9518C12.4548 43.9131 12.4329 43.8771 12.4226 43.8358V43.8345C12.4097 43.7856 12.4071 43.734 12.402 43.6838C12.3968 43.6451 12.3865 43.6065 12.3865 43.5678V15.887L2.06485 9.94704V9.94575ZM13.4202 2.22249L3.09985 8.16118L13.4176 14.0999L23.7367 8.15989L13.4176 2.22249H13.4202ZM50.5811 9.23064L40.262 15.1693L50.5811 21.108L60.8989 15.168L50.5811 9.23064ZM49.5486 22.8952L39.2257 16.9539V28.7101L49.5486 34.6514V22.8952ZM25.8042 49.388L48.5059 36.4334L38.1945 30.4986L15.5018 43.5588L25.8042 49.388Z" fill="url(#paint0_linear)"/>
<defs>
<linearGradient id="paint0_linear" x1="-0.529982" y1="-2.18752" x2="44.1294" y2="50.3345" gradientUnits="userSpaceOnUse">
<stop stop-color="#41D1FF"/>
<stop offset="1" stop-color="#BD34FE"/>
</linearGradient>
</defs>
</svg>
