<svg width="313" height="322" viewBox="0 0 313 322" fill="none" xmlns="http://www.w3.org/2000/svg">
<path fill-rule="evenodd" clip-rule="evenodd" d="M284.856 88.6001C284.951 88.9513 284.999 89.3135 285 89.6773V146.227C285 146.953 284.808 147.666 284.444 148.294C284.081 148.922 283.557 149.443 282.927 149.804L235.449 177.13V231.294C235.449 232.768 234.665 234.128 233.387 234.87L134.279 291.904C134.052 292.033 133.805 292.116 133.557 292.203C133.464 292.234 133.377 292.291 133.279 292.317C132.586 292.499 131.858 292.499 131.165 292.317C131.051 292.286 130.948 292.224 130.84 292.183C130.613 292.1 130.376 292.028 130.16 291.904L31.0726 234.87C30.4431 234.509 29.9201 233.988 29.5562 233.36C29.1924 232.732 29.0005 232.019 29 231.294V61.6447C29 61.2736 29.0516 60.9129 29.1444 60.5624C29.1753 60.4438 29.2475 60.3356 29.2887 60.2171C29.3661 60.0006 29.4382 59.779 29.5517 59.578C29.629 59.444 29.7424 59.3357 29.8352 59.212C29.9538 59.0471 30.0621 58.877 30.2013 58.7327C30.3199 58.6142 30.4745 58.5266 30.6086 58.4235C30.7581 58.2998 30.8921 58.1658 31.0623 58.0679H31.0674L80.6135 29.5508C81.2408 29.1899 81.952 29 82.6758 29C83.3996 29 84.1107 29.1899 84.738 29.5508L134.284 58.0679H134.294C134.459 58.1709 134.599 58.2998 134.748 58.4183C134.882 58.5214 135.032 58.6142 135.15 58.7276C135.295 58.877 135.398 59.0471 135.521 59.212C135.609 59.3357 135.728 59.444 135.8 59.578C135.918 59.7841 135.985 60.0006 136.068 60.2171C136.109 60.3356 136.181 60.4438 136.212 60.5675C136.307 60.9188 136.356 61.2809 136.357 61.6447V167.606L177.643 143.841V89.6721C177.643 89.3114 177.695 88.9454 177.788 88.6001C177.824 88.4764 177.891 88.3682 177.932 88.2496C178.015 88.0332 178.087 87.8115 178.2 87.6105C178.277 87.4765 178.391 87.3683 178.479 87.2446C178.602 87.0797 178.705 86.9096 178.85 86.7653C178.968 86.6467 179.118 86.5591 179.252 86.456C179.407 86.3324 179.541 86.1983 179.706 86.1004H179.711L229.262 57.5834C229.889 57.222 230.6 57.0318 231.324 57.0318C232.048 57.0318 232.759 57.222 233.387 57.5834L282.933 86.1004C283.108 86.2035 283.242 86.3324 283.397 86.4509C283.525 86.554 283.675 86.6467 283.794 86.7601C283.938 86.9096 284.041 87.0797 284.165 87.2446C284.258 87.3683 284.371 87.4765 284.443 87.6105C284.562 87.8115 284.629 88.0332 284.711 88.2496C284.758 88.3682 284.825 88.4764 284.856 88.6001ZM37.2594 68.783V228.907L128.092 281.184V233.695L80.6393 206.848L80.6238 206.838L80.6032 206.828C80.4434 206.735 80.3093 206.601 80.1598 206.487C80.0309 206.384 79.8814 206.302 79.768 206.188L79.7576 206.173C79.6236 206.044 79.5308 205.884 79.4174 205.74C79.3143 205.601 79.1905 205.482 79.108 205.338L79.1029 205.323C79.0101 205.168 78.9534 204.982 78.8863 204.807C78.8193 204.653 78.7317 204.508 78.6904 204.343V204.338C78.6389 204.142 78.6285 203.936 78.6079 203.735C78.5873 203.581 78.5461 203.426 78.5461 203.271V92.5481L37.2594 68.7882V68.783ZM82.6809 37.89L41.3994 61.6447L82.6706 85.3995L123.947 61.6396L82.6706 37.89H82.6809ZM231.324 65.9225L190.048 89.6773L231.324 113.432L272.595 89.6721L231.324 65.9225ZM227.195 120.581L185.903 96.8156V143.841L227.195 167.606V120.581ZM132.217 226.552L223.024 174.734L181.778 150.994L91.0073 203.235L132.217 226.552Z" fill="#FF2D20"/>
<path fill-rule="evenodd" clip-rule="evenodd" d="M284.856 88.6001C284.951 88.9513 284.999 89.3135 285 89.6773V146.227C285 146.953 284.808 147.666 284.444 148.294C284.081 148.922 283.557 149.443 282.927 149.804L235.449 177.13V231.294C235.449 232.768 234.665 234.128 233.387 234.87L134.279 291.904C134.052 292.033 133.805 292.116 133.557 292.203C133.464 292.234 133.377 292.291 133.279 292.317C132.586 292.499 131.858 292.499 131.165 292.317C131.051 292.286 130.948 292.224 130.84 292.183C130.613 292.1 130.376 292.028 130.16 291.904L31.0726 234.87C30.4431 234.509 29.9201 233.988 29.5562 233.36C29.1924 232.732 29.0005 232.019 29 231.294V61.6447C29 61.2736 29.0516 60.9129 29.1444 60.5624C29.1753 60.4438 29.2475 60.3356 29.2887 60.2171C29.3661 60.0006 29.4382 59.779 29.5517 59.578C29.629 59.444 29.7424 59.3357 29.8352 59.212C29.9538 59.0471 30.0621 58.877 30.2013 58.7327C30.3199 58.6142 30.4745 58.5266 30.6086 58.4235C30.7581 58.2998 30.8921 58.1658 31.0623 58.0679H31.0674L80.6135 29.5508C81.2408 29.1899 81.952 29 82.6758 29C83.3996 29 84.1107 29.1899 84.738 29.5508L134.284 58.0679H134.294C134.459 58.1709 134.599 58.2998 134.748 58.4183C134.882 58.5214 135.032 58.6142 135.15 58.7276C135.295 58.877 135.398 59.0471 135.521 59.212C135.609 59.3357 135.728 59.444 135.8 59.578C135.918 59.7841 135.985 60.0006 136.068 60.2171C136.109 60.3356 136.181 60.4438 136.212 60.5675C136.307 60.9188 136.356 61.2809 136.357 61.6447V167.606L177.643 143.841V89.6721C177.643 89.3114 177.695 88.9454 177.788 88.6001C177.824 88.4764 177.891 88.3682 177.932 88.2496C178.015 88.0332 178.087 87.8115 178.2 87.6105C178.277 87.4765 178.391 87.3683 178.479 87.2446C178.602 87.0797 178.705 86.9096 178.85 86.7653C178.968 86.6467 179.118 86.5591 179.252 86.456C179.407 86.3324 179.541 86.1983 179.706 86.1004H179.711L229.262 57.5834C229.889 57.222 230.6 57.0318 231.324 57.0318C232.048 57.0318 232.759 57.222 233.387 57.5834L282.933 86.1004C283.108 86.2035 283.242 86.3324 283.397 86.4509C283.525 86.554 283.675 86.6467 283.794 86.7601C283.938 86.9096 284.041 87.0797 284.165 87.2446C284.258 87.3683 284.371 87.4765 284.443 87.6105C284.562 87.8115 284.629 88.0332 284.711 88.2496C284.758 88.3682 284.825 88.4764 284.856 88.6001ZM37.2594 68.783V228.907L128.092 281.184V233.695L80.6393 206.848L80.6238 206.838L80.6032 206.828C80.4434 206.735 80.3093 206.601 80.1598 206.487C80.0309 206.384 79.8814 206.302 79.768 206.188L79.7576 206.173C79.6236 206.044 79.5308 205.884 79.4174 205.74C79.3143 205.601 79.1905 205.482 79.108 205.338L79.1029 205.323C79.0101 205.168 78.9534 204.982 78.8863 204.807C78.8193 204.653 78.7317 204.508 78.6904 204.343V204.338C78.6389 204.142 78.6285 203.936 78.6079 203.735C78.5873 203.581 78.5461 203.426 78.5461 203.271V92.5481L37.2594 68.7882V68.783ZM82.6809 37.89L41.3994 61.6447L82.6706 85.3995L123.947 61.6396L82.6706 37.89H82.6809ZM231.324 65.9225L190.048 89.6773L231.324 113.432L272.595 89.6721L231.324 65.9225ZM227.195 120.581L185.903 96.8156V143.841L227.195 167.606V120.581ZM132.217 226.552L223.024 174.734L181.778 150.994L91.0073 203.235L132.217 226.552Z" fill="url(#paint0_linear_304_20)"/>
<path d="M254.29 131.291L178.997 146.048C177.76 146.291 176.843 147.34 176.769 148.599L172.137 226.844C172.028 228.687 173.72 230.117 175.518 229.702L196.481 224.863C198.442 224.411 200.215 226.139 199.812 228.112L193.584 258.618C193.164 260.671 195.092 262.426 197.096 261.817L210.043 257.882C212.051 257.273 213.979 259.033 213.555 261.088L203.657 309.006C203.038 312.003 207.024 313.638 208.686 311.068L209.796 309.352L271.149 186.877C272.177 184.827 270.405 182.488 268.153 182.923L246.576 187.088C244.548 187.48 242.823 185.591 243.395 183.606L257.478 134.771C258.051 132.783 256.32 130.893 254.29 131.291Z" fill="url(#paint1_linear_304_20)"/>
<defs>
<linearGradient id="paint0_linear_304_20" x1="26.8801" y1="20.2499" x2="205.518" y2="230.338" gradientUnits="userSpaceOnUse">
<stop stop-color="#41D1FF"/>
<stop offset="1" stop-color="#BD34FE"/>
</linearGradient>
<linearGradient id="paint1_linear_304_20" x1="199.927" y1="135.297" x2="222.845" y2="292.474" gradientUnits="userSpaceOnUse">
<stop stop-color="#FFEA83"/>
<stop offset="0.0833333" stop-color="#FFDD35"/>
<stop offset="1" stop-color="#FFA800"/>
</linearGradient>
</defs>
</svg>
